<mxfile host="app.diagrams.net" modified="2024-02-03T18:43:16.387Z" agent="Mozilla/5.0 (Windows NT 10.0; Win64; x64) AppleWebKit/537.36 (KHTML, like Gecko) Chrome/120.0.0.0 Safari/537.36 OPR/106.0.0.0" etag="oCTEWbzK6VLWkS-9W8Nq" version="23.1.1" type="github">
  <diagram name="Page-1" id="kHksoBFhgNGcHORq6pyC">
    <mxGraphModel dx="1393" dy="797" grid="1" gridSize="10" guides="1" tooltips="1" connect="1" arrows="1" fold="1" page="1" pageScale="1" pageWidth="850" pageHeight="1100" math="0" shadow="0">
      <root>
        <mxCell id="0" />
        <mxCell id="1" parent="0" />
        <mxCell id="RCiGl2StS6iK090TKBiS-3" style="edgeStyle=orthogonalEdgeStyle;rounded=0;orthogonalLoop=1;jettySize=auto;html=1;entryX=0.5;entryY=0;entryDx=0;entryDy=0;" edge="1" parent="1" source="RCiGl2StS6iK090TKBiS-1" target="RCiGl2StS6iK090TKBiS-2">
          <mxGeometry relative="1" as="geometry" />
        </mxCell>
        <mxCell id="RCiGl2StS6iK090TKBiS-1" value="Enter Mobile App" style="rounded=0;whiteSpace=wrap;html=1;" vertex="1" parent="1">
          <mxGeometry x="365" y="40" width="120" height="60" as="geometry" />
        </mxCell>
        <mxCell id="RCiGl2StS6iK090TKBiS-5" style="edgeStyle=orthogonalEdgeStyle;rounded=0;orthogonalLoop=1;jettySize=auto;html=1;entryX=0.5;entryY=0;entryDx=0;entryDy=0;" edge="1" parent="1" source="RCiGl2StS6iK090TKBiS-2" target="RCiGl2StS6iK090TKBiS-4">
          <mxGeometry relative="1" as="geometry" />
        </mxCell>
        <mxCell id="RCiGl2StS6iK090TKBiS-2" value="Start Car" style="rounded=0;whiteSpace=wrap;html=1;" vertex="1" parent="1">
          <mxGeometry x="365" y="140" width="120" height="60" as="geometry" />
        </mxCell>
        <mxCell id="RCiGl2StS6iK090TKBiS-7" style="edgeStyle=orthogonalEdgeStyle;rounded=0;orthogonalLoop=1;jettySize=auto;html=1;entryX=0.5;entryY=0;entryDx=0;entryDy=0;" edge="1" parent="1" source="RCiGl2StS6iK090TKBiS-4" target="RCiGl2StS6iK090TKBiS-6">
          <mxGeometry relative="1" as="geometry" />
        </mxCell>
        <mxCell id="RCiGl2StS6iK090TKBiS-4" value="Take photo/video" style="rounded=0;whiteSpace=wrap;html=1;" vertex="1" parent="1">
          <mxGeometry x="365" y="250" width="120" height="60" as="geometry" />
        </mxCell>
        <mxCell id="RCiGl2StS6iK090TKBiS-6" value="Upload photo/video to web application" style="rounded=0;whiteSpace=wrap;html=1;" vertex="1" parent="1">
          <mxGeometry x="365" y="360" width="120" height="60" as="geometry" />
        </mxCell>
      </root>
    </mxGraphModel>
  </diagram>
</mxfile>
